<?xml version="1.0" encoding="utf-8"?>
<!-- Generator: Adobe Illustrator 26.3.1, SVG Export Plug-In . SVG Version: 6.00 Build 0)  -->
<svg version="1.1" id="Layer_1" xmlns="http://www.w3.org/2000/svg" xmlns:xlink="http://www.w3.org/1999/xlink" x="0px" y="0px"
	 viewBox="0 0 128 128" style="enable-background:new 0 0 128 128;" xml:space="preserve">
<style type="text/css">
	.st0{fill:#F4F4F8;}
	.st1{fill:#323064;}
	.st2{fill:#FB5C5F;}
	.st3{fill:#FFFFFF;}
	.st4{fill-rule:evenodd;clip-rule:evenodd;fill:url(#Rectangle_00000141444507986620093350000003373628920111679910_);}
	.st5{fill-rule:evenodd;clip-rule:evenodd;fill:url(#Rectangle_00000063630651877869466120000007902955686415694208_);}
	.st6{fill-rule:evenodd;clip-rule:evenodd;fill:url(#Rectangle_00000147924616008041700950000017268279766610622376_);}
	.st7{fill-rule:evenodd;clip-rule:evenodd;fill:url(#Rectangle_00000160191859649409211760000015672457250446381967_);}
	.st8{fill:#B97DDA;}
	.st9{fill:#64C3ED;}
</style>
<circle class="st0" cx="63" cy="64.2" r="62.7"/>
<g>
	<g>
		<g>
			<path class="st1" d="M71.4,56.3h-7.9c-0.6,0-1-0.5-1-1s0.5-1,1-1h7.9c0.6,0,1,0.5,1,1S71.9,56.3,71.4,56.3z"/>
		</g>
	</g>
	<g>
		<g>
			<path class="st1" d="M71.4,60.4h-7.9c-0.6,0-1-0.5-1-1c0-0.6,0.5-1,1-1h7.9c0.6,0,1,0.5,1,1C72.4,59.9,71.9,60.4,71.4,60.4z"/>
		</g>
	</g>
	<g>
		<g>
			<path class="st1" d="M71.4,64.4h-7.9c-0.6,0-1-0.5-1-1c0-0.6,0.5-1,1-1h7.9c0.6,0,1,0.5,1,1C72.4,64,71.9,64.4,71.4,64.4z"/>
		</g>
	</g>
	<g>
		<g>
			<path class="st1" d="M71.4,68.5h-7.9c-0.6,0-1-0.5-1-1s0.5-1,1-1h7.9c0.6,0,1,0.5,1,1S71.9,68.5,71.4,68.5z"/>
		</g>
	</g>
	<g>
		<g>
			<path class="st1" d="M71.4,72.6h-7.9c-0.6,0-1-0.5-1-1s0.5-1,1-1h7.9c0.6,0,1,0.5,1,1S71.9,72.6,71.4,72.6z"/>
		</g>
	</g>
	<g>
		<path class="st1" d="M28.6,91.7h67.6c0.6,0,0.9-0.4,0.9-0.9c0-0.6-0.4-0.9-0.9-0.9h-4.5V26.4c0-0.3-0.2-0.7-0.5-0.8
			c-0.3-0.2-0.6-0.2-0.9-0.1l-20.2,9.4c-0.4,0.2-0.6,0.5-0.6,0.8v12.7H60v-9c0-0.4-0.2-0.8-0.6-0.8l-20-8.5
			c-0.3-0.1-0.7-0.1-0.8,0.1c-0.3,0.2-0.4,0.5-0.4,0.8v23.9h-3.6c-0.6,0-0.9,0.4-0.9,0.9v34h-5c-0.6,0-0.9,0.4-0.9,0.9
			C27.8,91.3,28.1,91.7,28.6,91.7L28.6,91.7z M35.5,65.1h15.1v7.4H35.5V65.1z M71.4,36.5l18.3-8.6v61.9H77.2V49.4
			c0-0.6-0.4-0.9-0.9-0.9h-4.8L71.4,36.5z M75.3,50.4v39.4h-3h-9.2h-3l0-39.4H75.3z M40,32.4l18.2,7.7v49.7h-5.6l0-34
			c0-0.6-0.4-0.9-0.9-0.9H40L40,32.4z M50.6,56.8v6.5H35.5v-6.5H50.6z M38.1,89.8h-2.6l0-15.2h15.1v15.2h-3.3H38.1"/>
		<path class="st1" d="M96.3,91.9H28.6c-0.7,0-1.1-0.5-1.1-1.2c0-0.7,0.5-1.2,1.2-1.2h4.7V55.8c0-0.7,0.5-1.2,1.2-1.2H38V31
			c0-0.4,0.2-0.8,0.5-1c0.2-0.2,0.7-0.2,1.1-0.1l20.1,8.5c0.4,0.1,0.7,0.5,0.7,1.1v8.8h9V35.8c0-0.5,0.2-0.9,0.7-1.1l20.2-9.4
			c0.4-0.1,0.8-0.2,1.2,0.1c0.4,0.2,0.6,0.6,0.6,1v63.1h4.2c0.7,0,1.2,0.5,1.2,1.2C97.5,91.4,97,91.9,96.3,91.9z M28.7,90.1
			c-0.4,0-0.7,0.3-0.7,0.7c0,0.4,0.2,0.7,0.6,0.7h67.6c0.4,0,0.7-0.3,0.7-0.7s-0.3-0.7-0.7-0.7h-4.8V26.4c0-0.2-0.1-0.4-0.3-0.5
			l-0.1,0c-0.2-0.1-0.4-0.1-0.7-0.1l-20.2,9.4c-0.3,0.1-0.4,0.3-0.4,0.6v13h-10v-9.3c0-0.2-0.1-0.5-0.4-0.6l-20.1-8.5
			c-0.2-0.1-0.5-0.1-0.6,0c-0.2,0.1-0.3,0.3-0.3,0.6v24.2h-3.8c-0.4,0-0.7,0.3-0.7,0.7v34.2H28.7z M58.4,90.1h-6.2l0-34.2
			c0-0.4-0.3-0.7-0.7-0.7H39.7l0-23.2l18.7,7.9V90.1z M52.8,89.5h5.1V40.3l-17.6-7.5l0,21.8h11.3c0.7,0,1.2,0.5,1.2,1.2L52.8,89.5z
			 M90,90.1H76.9V49.4c0-0.4-0.3-0.7-0.7-0.7h-5.1l0-12.5L90,27.5V90.1z M77.4,89.5h12.1V28.3l-17.8,8.3l0,11.6h4.5
			c0.7,0,1.2,0.5,1.2,1.2V89.5z M75.6,90.1H59.8l0-40h15.8V90.1z M60.3,89.5H75V50.6H60.3L60.3,89.5z M50.9,90.1H35.2l0-15.8h15.7
			V90.1z M35.8,89.5h14.6V74.8H35.8L35.8,89.5z M50.9,72.8H35.2v-8h15.7V72.8z M35.8,72.3h14.6v-6.9H35.8V72.3z M50.9,63.5H35.2v-7
			h15.7V63.5z M35.8,63h14.6v-6H35.8V63z"/>
	</g>
	<g>
		<path class="st1" d="M47.1,83.6v6h-1.8v-6c0-1.5-1.2-2.7-2.6-2.7c-1.4,0-2.6,1.2-2.6,2.7v6h-1.8v-6c0-2.5,2-4.5,4.4-4.5
			C45.2,79.2,47.1,81.2,47.1,83.6z"/>
		<path class="st1" d="M47.3,89.8h-2.1v-6.1c0-1.4-1.1-2.5-2.5-2.5c-1.3,0-2.5,1.2-2.5,2.5v6.1h-2.1v-6.1c0-2.5,2-4.6,4.5-4.6
			c2.4,0,4.5,2.1,4.5,4.6V89.8z M45.5,89.5H47v-5.8c0-2.3-1.9-4.3-4.2-4.3c-2.3,0-4.2,1.9-4.2,4.3v5.8H40v-5.8
			c0-1.5,1.2-2.8,2.7-2.8c1.5,0,2.7,1.2,2.7,2.8V89.5z"/>
	</g>
	<g>
		<path class="st1" d="M72.1,83.6v6h-1.8v-6c0-1.5-1.2-2.7-2.6-2.7c-1.4,0-2.6,1.2-2.6,2.7v6h-1.8v-6c0-2.5,2-4.5,4.4-4.5
			C70.1,79.2,72.1,81.2,72.1,83.6z"/>
		<path class="st1" d="M72.2,89.8h-2.1v-6.1c0-1.4-1.1-2.5-2.5-2.5c-1.3,0-2.5,1.2-2.5,2.5v6.1h-2.1v-6.1c0-2.5,2-4.6,4.5-4.6
			c2.4,0,4.5,2.1,4.5,4.6V89.8z M70.5,89.5H72v-5.8c0-2.3-1.9-4.3-4.2-4.3c-2.3,0-4.2,1.9-4.2,4.3v5.8H65v-5.8
			c0-1.5,1.2-2.8,2.7-2.8c1.5,0,2.7,1.2,2.7,2.8V89.5z"/>
	</g>
</g>
</svg>
