<?xml version="1.0" encoding="UTF-8"?><svg id="Layer_1" xmlns="http://www.w3.org/2000/svg" viewBox="0 0 128 128"><defs><style>.cls-1{fill:#f4f4f8;}.cls-2{fill:#323064;stroke:#323064;stroke-miterlimit:10;stroke-width:.75px;}</style></defs><circle class="cls-1" cx="63.21" cy="64.18" r="62.66"/><path class="cls-2" d="M43.79,83.95c0,.74,.6,1.35,1.35,1.35s1.35-.6,1.35-1.35c-.01-9.23,7.48-16.72,16.71-16.72,9.23,0,16.72,7.51,16.72,16.72,0,.74,.6,1.35,1.35,1.35s1.35-.6,1.35-1.35c0-8.58-5.6-15.87-13.33-18.43,3.57-2.11,6-5.95,6-10.38,0-6.66-5.42-12.08-12.08-12.08s-12.08,5.42-12.08,12.08c0,4.43,2.43,8.28,6,10.38-7.75,2.56-13.34,9.85-13.34,18.43h0Zm10.03-28.81c0-5.18,4.21-9.39,9.39-9.39,5.18,0,9.39,4.21,9.39,9.39,0,5.18-4.21,9.39-9.39,9.39s-9.39-4.2-9.39-9.39h0Z"/></svg>